# xmcd
#
# Track frame offsets: 
#        150
#        18136
#        36092
#        50995
#        65920
#        86102
#        101240
#        116861
#        130116
#        148146
#        159780
#        174988
#        208731
#
# Disc length: 3079 seconds
#
# Revision: 1
# Processed by: cddbd v1.5.2PL0 Copyright (c) Steve Scherf et al.
# Submitted via: ExactAudioCopy v1.0b3
#
DISCID=bf0c050d
DTITLE=Szidi Tobias - Punto Fijo
DYEAR=2003
DGENRE=Pop
TTITLE0=Mrak
TTITLE1=Punti Fijo
TTITLE2=Dvanásť duší
TTITLE3=Obracím
TTITLE4=Před obrazom Fridy Kahlo
TTITLE5=Tiene nad krajinou Arles
TTITLE6=Púpavienka
TTITLE7=Frantisek
TTITLE8=Schelingerov most
TTITLE9=Tatkov velký deň
TTITLE10=Fedi a Piti
TTITLE11=Tak málo lásky
TTITLE12=hm
EXTD=
EXTT0=
EXTT1=
EXTT2=
EXTT3=
EXTT4=
EXTT5=
EXTT6=
EXTT7=
EXTT8=
EXTT9=
EXTT10=
EXTT11=
EXTT12=
PLAYORDER=
